<svg width="844" height="844" viewBox="0 0 844 844" fill="none" xmlns="http://www.w3.org/2000/svg">
<g filter="url(#filter0_d_13_30)">
<path fill-rule="evenodd" clip-rule="evenodd" d="M834 256.627C834 246.845 834.004 237.062 833.944 227.279C833.895 219.038 833.8 210.799 833.576 202.562C833.092 184.609 832.033 166.502 828.84 148.749C825.602 130.741 820.314 113.98 811.981 97.6166C803.789 81.5337 793.088 66.8168 780.32 54.0578C767.555 41.2989 752.834 30.6049 736.746 22.4179C720.366 14.0829 703.587 8.79697 685.558 5.55998C667.803 2.37199 649.691 1.315 631.738 0.829997C623.495 0.606998 615.253 0.512998 607.008 0.461998C597.22 0.401999 587.432 0.406999 577.644 0.406999L463.997 0H378.997L267.361 0.406999C257.554 0.406999 247.747 0.401999 237.94 0.461998C229.678 0.512998 221.42 0.606998 213.161 0.829997C195.167 1.315 177.014 2.37299 159.217 5.56498C141.164 8.80097 124.36 14.0849 107.958 22.4139C91.8354 30.6019 77.0825 41.2969 64.2906 54.0578C51.5007 66.8158 40.7798 81.5297 32.5728 97.6096C24.2169 113.981 18.9189 130.752 15.673 148.77C12.477 166.516 11.418 184.617 10.931 202.562C10.709 210.8 10.613 219.039 10.563 227.279C10.503 237.063 10 249.216 10 258.999L10.003 369.089L10 454.998L10.508 567.427C10.508 577.223 10.504 587.019 10.563 596.815C10.613 605.067 10.709 613.317 10.932 621.566C11.418 639.542 12.479 657.675 15.678 675.452C18.9229 693.484 24.2199 710.269 32.5688 726.653C40.7768 742.759 51.4997 757.495 64.2906 770.272C77.0815 783.049 91.8304 793.757 107.95 801.956C124.362 810.302 141.174 815.595 159.238 818.836C177.027 822.029 195.174 823.088 213.161 823.573C221.42 823.796 229.679 823.891 237.941 823.941C247.748 824.001 257.554 823.997 267.361 823.997L380.006 824H465.217L577.644 823.996C587.432 823.996 597.22 824.001 607.008 823.941C615.253 823.891 623.495 823.796 631.738 823.573C649.698 823.087 667.816 822.027 685.579 818.832C703.597 815.591 720.368 810.3 736.739 801.959C752.831 793.761 767.554 783.051 780.32 770.272C793.086 757.497 803.786 742.763 811.978 726.66C820.316 710.268 825.604 693.475 828.844 675.431C832.034 657.661 833.092 639.535 833.577 621.566C833.8 613.316 833.895 605.066 833.944 596.815C834.005 587.019 834 577.223 834 567.427C834 567.427 833.994 456.983 833.994 454.998V368.999C833.994 367.533 834 256.627 834 256.627Z" fill="#060616"/>
</g>
<mask id="mask0_13_30" style="mask-type:luminance" maskUnits="userSpaceOnUse" x="10" y="0" width="824" height="824">
<path fill-rule="evenodd" clip-rule="evenodd" d="M834 256.627C834 246.845 834.004 237.062 833.944 227.279C833.895 219.038 833.8 210.799 833.576 202.562C833.092 184.609 832.033 166.502 828.84 148.749C825.602 130.741 820.314 113.98 811.981 97.6166C803.789 81.5337 793.088 66.8168 780.32 54.0578C767.555 41.2989 752.834 30.6049 736.746 22.4179C720.366 14.0829 703.587 8.79697 685.558 5.55998C667.803 2.37199 649.691 1.315 631.738 0.829997C623.495 0.606998 615.253 0.512998 607.008 0.461998C597.22 0.401999 587.432 0.406999 577.644 0.406999L463.997 0H378.997L267.361 0.406999C257.554 0.406999 247.747 0.401999 237.94 0.461998C229.678 0.512998 221.42 0.606998 213.161 0.829997C195.167 1.315 177.014 2.37299 159.217 5.56498C141.164 8.80097 124.36 14.0849 107.958 22.4139C91.8354 30.6019 77.0825 41.2969 64.2906 54.0578C51.5007 66.8158 40.7798 81.5297 32.5728 97.6096C24.2169 113.981 18.9189 130.752 15.673 148.77C12.477 166.516 11.418 184.617 10.931 202.562C10.709 210.8 10.613 219.039 10.563 227.279C10.503 237.063 10 249.216 10 258.999L10.003 369.089L10 454.998L10.508 567.427C10.508 577.223 10.504 587.019 10.563 596.815C10.613 605.067 10.709 613.317 10.932 621.566C11.418 639.542 12.479 657.675 15.678 675.452C18.9229 693.484 24.2199 710.269 32.5688 726.653C40.7768 742.759 51.4997 757.495 64.2906 770.272C77.0815 783.049 91.8304 793.757 107.95 801.956C124.362 810.302 141.174 815.595 159.238 818.836C177.027 822.029 195.174 823.088 213.161 823.573C221.42 823.796 229.679 823.891 237.941 823.941C247.748 824.001 257.554 823.997 267.361 823.997L380.006 824H465.217L577.644 823.996C587.432 823.996 597.22 824.001 607.008 823.941C615.253 823.891 623.495 823.796 631.738 823.573C649.698 823.087 667.816 822.027 685.579 818.832C703.597 815.591 720.368 810.3 736.739 801.959C752.831 793.761 767.554 783.051 780.32 770.272C793.086 757.497 803.786 742.763 811.978 726.66C820.316 710.268 825.604 693.475 828.844 675.431C832.034 657.661 833.092 639.535 833.577 621.566C833.8 613.316 833.895 605.066 833.944 596.815C834.005 587.019 834 577.223 834 567.427C834 567.427 833.994 456.983 833.994 454.998V368.999C833.994 367.533 834 256.627 834 256.627Z" fill="white"/>
</mask>
<g mask="url(#mask0_13_30)">
<path d="M296.277 219.739C310.128 196.436 340.247 188.773 363.551 202.623C386.854 216.474 394.517 246.593 380.667 269.896L290.468 421.657C276.618 444.961 246.498 452.624 223.195 438.774C199.891 424.923 192.228 394.804 206.078 371.5L296.277 219.739Z" fill="url(#paint0_linear_13_30)"/>
<path d="M296.536 219.74C310.386 196.436 340.505 188.773 363.809 202.623C387.113 216.474 394.776 246.593 380.925 269.896L378.821 273.437C364.971 296.741 334.851 304.404 311.548 290.553C288.244 276.703 280.581 246.584 294.431 223.28L296.536 219.74Z" fill="#519DDD"/>
<rect x="510.297" y="171" width="98.1699" height="558.782" rx="49.085" transform="rotate(30.7251 510.297 171)" fill="url(#paint1_linear_13_30)"/>
<path d="M485.218 213.195C499.069 189.891 529.188 182.228 552.492 196.078C575.795 209.929 583.458 240.048 569.608 263.352C555.757 286.655 525.638 294.319 502.335 280.468C479.031 266.618 471.368 236.498 485.218 213.195Z" fill="#53B8CB"/>
<path d="M570.532 370.267C584.383 346.963 614.502 339.3 637.805 353.15C661.109 367.001 668.772 397.12 654.922 420.424L548.983 598.667C535.132 621.971 505.013 629.634 481.709 615.784C458.406 601.933 450.742 571.814 464.593 548.511L570.532 370.267Z" fill="url(#paint2_linear_13_30)"/>
<path d="M570.532 370.267C584.383 346.963 614.502 339.3 637.805 353.15C661.109 367.001 668.772 397.12 654.922 420.424L653.213 423.299C639.362 446.603 609.243 454.266 585.939 440.416C562.636 426.565 554.972 396.446 568.823 373.142L570.532 370.267Z" fill="#57BE99"/>
</g>
<defs>
<filter id="filter0_d_13_30" x="0" y="0" width="844" height="844" filterUnits="userSpaceOnUse" color-interpolation-filters="sRGB">
<feFlood flood-opacity="0" result="BackgroundImageFix"/>
<feColorMatrix in="SourceAlpha" type="matrix" values="0 0 0 0 0 0 0 0 0 0 0 0 0 0 0 0 0 0 127 0" result="hardAlpha"/>
<feOffset dy="10"/>
<feGaussianBlur stdDeviation="5"/>
<feColorMatrix type="matrix" values="0 0 0 0 0 0 0 0 0 0 0 0 0 0 0 0 0 0 0.3 0"/>
<feBlend mode="normal" in2="BackgroundImageFix" result="effect1_dropShadow_13_30"/>
<feBlend mode="normal" in="SourceGraphic" in2="effect1_dropShadow_13_30" result="shape"/>
</filter>
<linearGradient id="paint0_linear_13_30" x1="363.551" y1="202.623" x2="223.195" y2="438.774" gradientUnits="userSpaceOnUse">
<stop stop-color="#519DDD"/>
<stop offset="1" stop-color="#5B2C77"/>
</linearGradient>
<linearGradient id="paint1_linear_13_30" x1="559.382" y1="171" x2="559.382" y2="729.782" gradientUnits="userSpaceOnUse">
<stop stop-color="#53B8CB"/>
<stop offset="1" stop-color="#355579"/>
</linearGradient>
<linearGradient id="paint2_linear_13_30" x1="637.805" y1="353.15" x2="481.709" y2="615.784" gradientUnits="userSpaceOnUse">
<stop stop-color="#57BE99"/>
<stop offset="1" stop-color="#2F6E70"/>
</linearGradient>
</defs>
</svg>
